<svg width="415" height="415" viewBox="0 0 415 415" fill="none" xmlns="http://www.w3.org/2000/svg">
<rect width="415" height="415" fill="#F28E00"/>
<path d="M192.716 145.119L193.438 145.974L184.895 170.288L183.762 170.479L160.4 174.391L159.262 174.579L142.11 152.649L167.736 149.789L176.246 125.565L192.716 145.119ZM149.494 155.759L160.897 170.339L179.742 167.184L168.349 153.655L149.494 155.759ZM171.371 151.19L182.735 164.683L189.022 146.787L177.658 133.294L171.371 151.19Z" fill="white"/>
<path d="M170.964 124.56L171.337 125.618L154.747 145.292L153.621 145.066L130.4 140.377L129.27 140.146L121 113.523L145.964 120.003L162.491 100.401L170.964 124.56ZM126.801 119.067L132.299 136.767L151.029 140.549L145.169 123.836L126.801 119.067ZM148.866 122.611L154.712 139.281L166.922 124.8L161.075 108.13L148.866 122.611Z" fill="white"/>
<path d="M227.718 195.404L227.716 196.526L205.52 209.471L204.534 208.878L184.224 196.638L183.235 196.04L184.332 168.172L205.687 182.688L227.8 169.789L227.718 195.404ZM187.946 175.349L187.217 193.877L203.6 203.75L203.659 186.03L187.946 175.349ZM207.55 186.122L207.493 203.797L223.83 194.268L223.886 176.593L207.55 186.122Z" fill="white"/>
<path d="M207.454 207.666V252H203.56V207.666H207.454Z" fill="white"/>
<path d="M252.658 161.026L252.401 162.118L227.853 169.641L227.028 168.838L210.028 152.27L209.201 151.462L216.59 124.578L234.09 143.6L258.548 136.104L252.658 161.026ZM218.482 132.394L213.569 150.267L227.281 163.631L231.357 146.391L218.482 132.394ZM235.126 147.371L231.062 164.568L249.129 159.03L253.194 141.833L235.126 147.371Z" fill="white"/>
<path d="M273.964 145.193L273.043 145.828L249.835 134.819L249.761 133.667L248.261 109.921L248.19 108.764L271.649 93.8504L271.877 119.753L295 130.719L273.964 145.193ZM267.819 100.915L252.223 110.829L253.433 129.984L267.986 119.973L267.819 100.915ZM270.12 123.243L255.605 133.23L272.687 141.332L287.203 131.345L270.12 123.243Z" fill="white"/>
<path d="M255.625 99.6597L255.268 100.723L230.13 105.92L229.383 105.044L213.99 86.9592L213.242 86.0771L223.087 60L238.751 80.5752L263.796 75.3957L255.625 99.6597ZM224.247 67.9591L217.701 85.2956L230.117 99.8832L235.772 83.0983L224.247 67.9591ZM239.433 84.4262L233.795 101.169L252.297 97.3424L257.935 80.5998L239.433 84.4262Z" fill="white"/>
<path d="M217.928 115.755L217.992 116.875L196.599 131.119L195.58 130.586L174.583 119.577L173.561 119.039L173.011 91.1548L195.185 104.373L216.498 90.1802L217.928 115.755ZM177.043 98.1045L177.408 116.643L194.345 125.523L193.357 107.831L177.043 98.1045ZM197.247 107.691L198.234 125.338L213.979 114.852L212.993 97.2055L197.247 107.691Z" fill="white"/>
<path d="M147.515 271.162V292.41C147.515 294.671 147.014 296.715 146.01 298.542C145.022 300.354 143.517 301.791 141.496 302.854C139.489 303.918 136.959 304.449 133.904 304.449C129.562 304.449 126.252 303.341 123.976 301.125C121.7 298.909 120.562 295.974 120.562 292.32V271.162H127.503V291.265C127.503 293.975 128.057 295.877 129.165 296.97C130.273 298.063 131.912 298.609 134.084 298.609C135.611 298.609 136.846 298.347 137.79 297.823C138.748 297.299 139.452 296.491 139.901 295.397C140.35 294.304 140.575 292.912 140.575 291.22V271.162H147.515ZM167.334 271.162C171.571 271.162 174.663 272.076 176.61 273.902C178.557 275.714 179.53 278.215 179.53 281.404C179.53 282.842 179.313 284.219 178.879 285.537C178.444 286.84 177.733 288 176.745 289.019C175.771 290.037 174.469 290.845 172.837 291.444C171.204 292.028 169.19 292.32 166.795 292.32H163.807V304H156.844V271.162H167.334ZM166.974 276.867H163.807V286.615H166.098C167.401 286.615 168.532 286.443 169.49 286.099C170.448 285.754 171.189 285.215 171.714 284.481C172.238 283.748 172.5 282.804 172.5 281.651C172.5 280.034 172.05 278.836 171.152 278.058C170.254 277.264 168.861 276.867 166.974 276.867ZM197.506 271.162C201.744 271.162 204.836 272.076 206.783 273.902C208.729 275.714 209.703 278.215 209.703 281.404C209.703 282.842 209.486 284.219 209.051 285.537C208.617 286.84 207.906 288 206.918 289.019C205.944 290.037 204.641 290.845 203.009 291.444C201.377 292.028 199.363 292.32 196.967 292.32H193.98V304H187.017V271.162H197.506ZM197.147 276.867H193.98V286.615H196.271C197.574 286.615 198.704 286.443 199.663 286.099C200.621 285.754 201.362 285.215 201.886 284.481C202.41 283.748 202.672 282.804 202.672 281.651C202.672 280.034 202.223 278.836 201.325 278.058C200.426 277.264 199.034 276.867 197.147 276.867ZM217.19 304V271.162H224.153V298.25H237.472V304H217.19ZM263.4 304H244.488V271.162H263.4V276.867H251.451V284.077H262.569V289.782H251.451V298.25H263.4V304ZM297.324 271.162L286.16 304H278.569L267.428 271.162H274.458L280.635 290.703C280.74 291.033 280.912 291.654 281.152 292.567C281.391 293.466 281.631 294.424 281.87 295.442C282.125 296.446 282.297 297.277 282.387 297.936C282.477 297.277 282.634 296.446 282.859 295.442C283.098 294.439 283.33 293.488 283.555 292.59C283.795 291.676 283.967 291.048 284.072 290.703L290.293 271.162H297.324ZM111.054 324.162L99.8904 357H92.2986L81.158 324.162H88.1883L94.365 343.703C94.4699 344.033 94.6421 344.654 94.8816 345.567C95.1212 346.466 95.3608 347.424 95.6004 348.442C95.855 349.446 96.0272 350.277 96.117 350.936C96.2068 350.277 96.3641 349.446 96.5887 348.442C96.8283 347.439 97.0604 346.488 97.285 345.59C97.5245 344.676 97.6967 344.048 97.8016 343.703L104.023 324.162H111.054ZM136.599 357L134.218 349.184H122.247L119.866 357H112.364L123.954 324.027H132.467L144.101 357H136.599ZM132.556 343.344L130.176 335.707C130.026 335.198 129.824 334.547 129.569 333.753C129.329 332.944 129.082 332.128 128.828 331.305C128.588 330.466 128.394 329.74 128.244 329.126C128.094 329.74 127.884 330.504 127.615 331.417C127.36 332.315 127.113 333.169 126.874 333.978C126.634 334.786 126.462 335.363 126.357 335.707L123.999 343.344H132.556ZM176.79 340.267C176.79 343.965 176.078 347.057 174.656 349.543C173.248 352.014 171.204 353.878 168.524 355.136C165.844 356.379 162.617 357 158.843 357H149.545V324.162H159.854C163.298 324.162 166.285 324.776 168.816 326.004C171.347 327.217 173.308 329.021 174.701 331.417C176.093 333.798 176.79 336.748 176.79 340.267ZM169.557 340.446C169.557 338.021 169.198 336.029 168.479 334.472C167.775 332.899 166.727 331.739 165.335 330.99C163.957 330.242 162.25 329.867 160.214 329.867H156.507V351.25H159.495C162.894 351.25 165.417 350.344 167.064 348.532C168.726 346.72 169.557 344.025 169.557 340.446ZM204.267 347.881C204.267 349.827 203.795 351.52 202.852 352.957C201.909 354.395 200.531 355.503 198.719 356.281C196.922 357.06 194.736 357.449 192.161 357.449C191.023 357.449 189.907 357.374 188.814 357.225C187.736 357.075 186.695 356.858 185.692 356.573C184.704 356.274 183.76 355.907 182.862 355.473V349.004C184.419 349.693 186.036 350.314 187.713 350.868C189.391 351.422 191.053 351.699 192.7 351.699C193.838 351.699 194.751 351.549 195.44 351.25C196.144 350.951 196.653 350.539 196.967 350.015C197.282 349.491 197.439 348.892 197.439 348.218C197.439 347.394 197.162 346.69 196.608 346.106C196.054 345.522 195.29 344.976 194.317 344.467C193.359 343.958 192.273 343.411 191.06 342.827C190.296 342.468 189.465 342.034 188.567 341.524C187.668 341 186.815 340.364 186.006 339.615C185.198 338.867 184.531 337.961 184.007 336.897C183.498 335.819 183.244 334.532 183.244 333.034C183.244 331.073 183.693 329.396 184.591 328.003C185.49 326.61 186.77 325.547 188.432 324.813C190.109 324.065 192.086 323.69 194.362 323.69C196.069 323.69 197.694 323.893 199.236 324.297C200.793 324.686 202.418 325.255 204.11 326.004L201.864 331.417C200.351 330.803 198.996 330.331 197.798 330.002C196.6 329.658 195.38 329.485 194.137 329.485C193.269 329.485 192.528 329.628 191.914 329.912C191.3 330.182 190.835 330.571 190.521 331.08C190.207 331.574 190.049 332.151 190.049 332.81C190.049 333.588 190.274 334.247 190.723 334.786C191.187 335.31 191.876 335.819 192.79 336.313C193.718 336.808 194.871 337.384 196.249 338.043C197.926 338.837 199.356 339.668 200.539 340.536C201.737 341.39 202.657 342.4 203.301 343.568C203.945 344.721 204.267 346.159 204.267 347.881ZM224.175 357H217.212V329.957H208.295V324.162H233.092V329.957H224.175V357ZM258.346 357H239.434V324.162H258.346V329.867H246.397V337.077H257.515V342.782H246.397V351.25H258.346V357ZM295.639 357H286.789L272.504 332.158H272.302C272.362 333.191 272.414 334.232 272.459 335.28C272.504 336.328 272.549 337.377 272.594 338.425C272.639 339.458 272.684 340.499 272.729 341.547V357H266.507V324.162H275.289L289.552 348.757H289.709C289.679 347.739 289.642 346.728 289.597 345.725C289.552 344.721 289.507 343.718 289.462 342.715C289.432 341.712 289.402 340.708 289.372 339.705V324.162H295.639V357ZM325.318 357L322.937 349.184H310.965L308.584 357H301.082L312.672 324.027H321.185L332.82 357H325.318ZM321.275 343.344L318.894 335.707C318.744 335.198 318.542 334.547 318.287 333.753C318.048 332.944 317.801 332.128 317.546 331.305C317.306 330.466 317.112 329.74 316.962 329.126C316.812 329.74 316.603 330.504 316.333 331.417C316.079 332.315 315.832 333.169 315.592 333.978C315.352 334.786 315.18 335.363 315.075 335.707L312.717 343.344H321.275Z" fill="white"/>
<path d="M147.515 271.162H148.015V270.662H147.515V271.162ZM146.01 298.542L145.572 298.301L145.572 298.303L146.01 298.542ZM141.496 302.854L141.263 302.412L141.262 302.413L141.496 302.854ZM123.976 301.125L123.627 301.483L123.976 301.125ZM120.562 271.162V270.662H120.062V271.162H120.562ZM127.503 271.162H128.003V270.662H127.503V271.162ZM129.165 296.97L128.814 297.326L129.165 296.97ZM137.79 297.823L137.55 297.385L137.547 297.386L137.79 297.823ZM140.575 271.162V270.662H140.075V271.162H140.575ZM147.515 271.162H147.015V292.41H147.515H148.015V271.162H147.515ZM147.515 292.41H147.015C147.015 294.594 146.532 296.554 145.572 298.301L146.01 298.542L146.449 298.783C147.496 296.876 148.015 294.748 148.015 292.41H147.515ZM146.01 298.542L145.572 298.303C144.635 300.019 143.207 301.39 141.263 302.412L141.496 302.854L141.729 303.297C143.828 302.193 145.409 300.689 146.449 298.781L146.01 298.542ZM141.496 302.854L141.262 302.413C139.348 303.427 136.904 303.949 133.904 303.949V304.449V304.949C137.013 304.949 139.631 304.409 141.73 303.296L141.496 302.854ZM133.904 304.449V303.949C129.643 303.949 126.478 302.863 124.325 300.767L123.976 301.125L123.627 301.483C126.027 303.819 129.48 304.949 133.904 304.949V304.449ZM123.976 301.125L124.325 300.767C122.16 298.659 121.062 295.861 121.062 292.32H120.562H120.062C120.062 296.087 121.24 299.159 123.627 301.483L123.976 301.125ZM120.562 292.32H121.062V271.162H120.562H120.062V292.32H120.562ZM120.562 271.162V271.662H127.503V271.162V270.662H120.562V271.162ZM127.503 271.162H127.003V291.265H127.503H128.003V271.162H127.503ZM127.503 291.265H127.003C127.003 294.017 127.56 296.089 128.814 297.326L129.165 296.97L129.516 296.614C128.553 295.664 128.003 293.933 128.003 291.265H127.503ZM129.165 296.97L128.814 297.326C130.047 298.542 131.834 299.109 134.084 299.109V298.609V298.109C131.991 298.109 130.499 297.583 129.516 296.614L129.165 296.97ZM134.084 298.609V299.109C135.663 299.109 136.99 298.839 138.033 298.26L137.79 297.823L137.547 297.386C136.702 297.855 135.559 298.109 134.084 298.109V298.609ZM137.79 297.823L138.03 298.262C139.097 297.678 139.875 296.777 140.364 295.588L139.901 295.397L139.439 295.207C139.029 296.204 138.399 296.92 137.55 297.385L137.79 297.823ZM139.901 295.397L140.364 295.588C140.846 294.414 141.075 292.951 141.075 291.22H140.575H140.075C140.075 292.873 139.855 294.195 139.439 295.207L139.901 295.397ZM140.575 291.22H141.075V271.162H140.575H140.075V291.22H140.575ZM140.575 271.162V271.662H147.515V271.162V270.662H140.575V271.162ZM176.61 273.902L176.268 274.267L176.269 274.268L176.61 273.902ZM178.879 285.537L179.353 285.695L179.353 285.694L178.879 285.537ZM176.745 289.019L176.386 288.67L176.383 288.673L176.745 289.019ZM172.837 291.444L173.005 291.915L173.009 291.914L172.837 291.444ZM163.807 292.32V291.82H163.307V292.32H163.807ZM163.807 304V304.5H164.307V304H163.807ZM156.844 304H156.344V304.5H156.844V304ZM156.844 271.162V270.662H156.344V271.162H156.844ZM163.807 276.867V276.367H163.307V276.867H163.807ZM163.807 286.615H163.307V287.115H163.807V286.615ZM171.152 278.058L170.821 278.432L170.825 278.435L171.152 278.058ZM167.334 271.162V271.662C171.516 271.662 174.455 272.566 176.268 274.267L176.61 273.902L176.952 273.538C174.871 271.585 171.627 270.662 167.334 270.662V271.162ZM176.61 273.902L176.269 274.268C178.094 275.967 179.03 278.324 179.03 281.404H179.53H180.03C180.03 278.106 179.019 275.461 176.951 273.536L176.61 273.902ZM179.53 281.404H179.03C179.03 282.791 178.821 284.115 178.404 285.381L178.879 285.537L179.353 285.694C179.805 284.324 180.03 282.893 180.03 281.404H179.53ZM178.879 285.537L178.404 285.379C177.995 286.608 177.324 287.704 176.386 288.67L176.745 289.019L177.104 289.367C178.142 288.297 178.894 287.072 179.353 285.695L178.879 285.537ZM176.745 289.019L176.383 288.673C175.474 289.625 174.241 290.396 172.664 290.975L172.837 291.444L173.009 291.914C174.696 291.294 176.069 290.449 177.106 289.364L176.745 289.019ZM172.837 291.444L172.668 290.974C171.106 291.532 169.153 291.82 166.795 291.82V292.32V292.82C169.227 292.82 171.302 292.524 173.005 291.915L172.837 291.444ZM166.795 292.32V291.82H163.807V292.32V292.82H166.795V292.32ZM163.807 292.32H163.307V304H163.807H164.307V292.32H163.807ZM163.807 304V303.5H156.844V304V304.5H163.807V304ZM156.844 304H157.344V271.162H156.844H156.344V304H156.844ZM156.844 271.162V271.662H167.334V271.162V270.662H156.844V271.162ZM166.974 276.867V276.367H163.807V276.867V277.367H166.974V276.867ZM163.807 276.867H163.307V286.615H163.807H164.307V276.867H163.807ZM163.807 286.615V287.115H166.098V286.615V286.115H163.807V286.615ZM166.098 286.615V287.115C167.443 287.115 168.634 286.938 169.659 286.569L169.49 286.099L169.321 285.628C168.429 285.948 167.359 286.115 166.098 286.115V286.615ZM169.49 286.099L169.659 286.569C170.7 286.195 171.53 285.599 172.12 284.772L171.714 284.481L171.307 284.191C170.849 284.831 170.196 285.313 169.321 285.628L169.49 286.099ZM171.714 284.481L172.12 284.772C172.72 283.933 173 282.879 173 281.651H172.5H172C172 282.729 171.755 283.563 171.307 284.191L171.714 284.481ZM172.5 281.651H173C173 279.944 172.523 278.584 171.479 277.68L171.152 278.058L170.825 278.435C171.578 279.088 172 280.124 172 281.651H172.5ZM171.152 278.058L171.483 277.683C170.453 276.773 168.916 276.367 166.974 276.367V276.867V277.367C168.806 277.367 170.054 277.755 170.821 278.432L171.152 278.058ZM206.783 273.902L206.441 274.267L206.442 274.268L206.783 273.902ZM209.051 285.537L209.526 285.695L209.526 285.694L209.051 285.537ZM206.918 289.019L206.559 288.67L206.556 288.673L206.918 289.019ZM203.009 291.444L203.178 291.915L203.182 291.914L203.009 291.444ZM193.98 292.32V291.82H193.48V292.32H193.98ZM193.98 304V304.5H194.48V304H193.98ZM187.017 304H186.517V304.5H187.017V304ZM187.017 271.162V270.662H186.517V271.162H187.017ZM193.98 276.867V276.367H193.48V276.867H193.98ZM193.98 286.615H193.48V287.115H193.98V286.615ZM201.325 278.058L200.994 278.432L200.997 278.435L201.325 278.058ZM197.506 271.162V271.662C201.688 271.662 204.628 272.566 206.441 274.267L206.783 273.902L207.125 273.538C205.044 271.585 201.8 270.662 197.506 270.662V271.162ZM206.783 273.902L206.442 274.268C208.267 275.967 209.203 278.324 209.203 281.404H209.703H210.203C210.203 278.106 209.192 275.461 207.123 273.536L206.783 273.902ZM209.703 281.404H209.203C209.203 282.791 208.993 284.115 208.576 285.381L209.051 285.537L209.526 285.694C209.978 284.324 210.203 282.893 210.203 281.404H209.703ZM209.051 285.537L208.577 285.379C208.167 286.608 207.496 287.704 206.559 288.67L206.918 289.019L207.276 289.367C208.315 288.297 209.067 287.072 209.526 285.695L209.051 285.537ZM206.918 289.019L206.556 288.673C205.646 289.625 204.414 290.396 202.837 290.975L203.009 291.444L203.182 291.914C204.869 291.294 206.242 290.449 207.279 289.364L206.918 289.019ZM203.009 291.444L202.841 290.974C201.279 291.532 199.326 291.82 196.967 291.82V292.32V292.82C199.4 292.82 201.475 292.524 203.178 291.915L203.009 291.444ZM196.967 292.32V291.82H193.98V292.32V292.82H196.967V292.32ZM193.98 292.32H193.48V304H193.98H194.48V292.32H193.98ZM193.98 304V303.5H187.017V304V304.5H193.98V304ZM187.017 304H187.517V271.162H187.017H186.517V304H187.017ZM187.017 271.162V271.662H197.506V271.162V270.662H187.017V271.162ZM197.147 276.867V276.367H193.98V276.867V277.367H197.147V276.867ZM193.98 276.867H193.48V286.615H193.98H194.48V276.867H193.98ZM193.98 286.615V287.115H196.271V286.615V286.115H193.98V286.615ZM196.271 286.615V287.115C197.616 287.115 198.806 286.938 199.832 286.569L199.663 286.099L199.494 285.628C198.602 285.948 197.531 286.115 196.271 286.115V286.615ZM199.663 286.099L199.832 286.569C200.873 286.195 201.702 285.599 202.293 284.772L201.886 284.481L201.479 284.191C201.022 284.831 200.369 285.313 199.494 285.628L199.663 286.099ZM201.886 284.481L202.293 284.772C202.893 283.933 203.172 282.879 203.172 281.651H202.672H202.172C202.172 282.729 201.928 283.563 201.479 284.191L201.886 284.481ZM202.672 281.651H203.172C203.172 279.944 202.696 278.584 201.652 277.68L201.325 278.058L200.997 278.435C201.751 279.088 202.172 280.124 202.172 281.651H202.672ZM201.325 278.058L201.656 277.683C200.626 276.773 199.089 276.367 197.147 276.367V276.867V277.367C198.978 277.367 200.227 277.755 200.994 278.432L201.325 278.058ZM217.19 304H216.69V304.5H217.19V304ZM217.19 271.162V270.662H216.69V271.162H217.19ZM224.153 271.162H224.653V270.662H224.153V271.162ZM224.153 298.25H223.653V298.75H224.153V298.25ZM237.472 298.25H237.972V297.75H237.472V298.25ZM237.472 304V304.5H237.972V304H237.472ZM217.19 304H217.69V271.162H217.19H216.69V304H217.19ZM217.19 271.162V271.662H224.153V271.162V270.662H217.19V271.162ZM224.153 271.162H223.653V298.25H224.153H224.653V271.162H224.153ZM224.153 298.25V298.75H237.472V298.25V297.75H224.153V298.25ZM237.472 298.25H236.972V304H237.472H237.972V298.25H237.472ZM237.472 304V303.5H217.19V304V304.5H237.472V304ZM263.4 304V304.5H263.9V304H263.4ZM244.488 304H243.988V304.5H244.488V304ZM244.488 271.162V270.662H243.988V271.162H244.488ZM263.4 271.162H263.9V270.662H263.4V271.162ZM263.4 276.867V277.367H263.9V276.867H263.4ZM251.451 276.867V276.367H250.951V276.867H251.451ZM251.451 284.077H250.951V284.577H251.451V284.077ZM262.569 284.077H263.069V283.577H262.569V284.077ZM262.569 289.782V290.282H263.069V289.782H262.569ZM251.451 289.782V289.282H250.951V289.782H251.451ZM251.451 298.25H250.951V298.75H251.451V298.25ZM263.4 298.25H263.9V297.75H263.4V298.25ZM263.4 304V303.5H244.488V304V304.5H263.4V304ZM244.488 304H244.988V271.162H244.488H243.988V304H244.488ZM244.488 271.162V271.662H263.4V271.162V270.662H244.488V271.162ZM263.4 271.162H262.9V276.867H263.4H263.9V271.162H263.4ZM263.4 276.867V276.367H251.451V276.867V277.367H263.4V276.867ZM251.451 276.867H250.951V284.077H251.451H251.951V276.867H251.451ZM251.451 284.077V284.577H262.569V284.077V283.577H251.451V284.077ZM262.569 284.077H262.069V289.782H262.569H263.069V284.077H262.569ZM262.569 289.782V289.282H251.451V289.782V290.282H262.569V289.782ZM251.451 289.782H250.951V298.25H251.451H251.951V289.782H251.451ZM251.451 298.25V298.75H263.4V298.25V297.75H251.451V298.25ZM263.4 298.25H262.9V304H263.4H263.9V298.25H263.4ZM297.324 271.162L297.797 271.323L298.022 270.662H297.324V271.162ZM286.16 304V304.5H286.519L286.634 304.161L286.16 304ZM278.569 304L278.095 304.161L278.21 304.5H278.569V304ZM267.428 271.162V270.662H266.73L266.955 271.323L267.428 271.162ZM274.458 271.162L274.935 271.011L274.825 270.662H274.458V271.162ZM280.635 290.703L280.158 290.854L280.159 290.855L280.635 290.703ZM281.152 292.567L280.668 292.694L280.669 292.696L281.152 292.567ZM281.87 295.442L281.384 295.557L281.386 295.565L281.87 295.442ZM282.387 297.936L281.892 298.003H282.882L282.387 297.936ZM282.859 295.442L282.372 295.326L282.371 295.333L282.859 295.442ZM283.555 292.59L283.071 292.463L283.07 292.469L283.555 292.59ZM284.072 290.703L283.595 290.551L283.593 290.558L284.072 290.703ZM290.293 271.162V270.662H289.928L289.817 271.01L290.293 271.162ZM297.324 271.162L296.85 271.001L285.687 303.839L286.16 304L286.634 304.161L297.797 271.323L297.324 271.162ZM286.16 304V303.5H278.569V304V304.5H286.16V304ZM278.569 304L279.042 303.839L267.902 271.001L267.428 271.162L266.955 271.323L278.095 304.161L278.569 304ZM267.428 271.162V271.662H274.458V271.162V270.662H267.428V271.162ZM274.458 271.162L273.982 271.313L280.158 290.854L280.635 290.703L281.112 290.552L274.935 271.011L274.458 271.162ZM280.635 290.703L280.159 290.855C280.259 291.17 280.428 291.78 280.668 292.694L281.152 292.567L281.635 292.441C281.396 291.528 281.221 290.895 281.112 290.552L280.635 290.703ZM281.152 292.567L280.669 292.696C280.907 293.589 281.145 294.543 281.384 295.557L281.87 295.442L282.357 295.328C282.117 294.305 281.876 293.342 281.635 292.439L281.152 292.567ZM281.87 295.442L281.386 295.565C281.638 296.559 281.805 297.37 281.892 298.003L282.387 297.936L282.882 297.868C282.789 297.183 282.612 296.332 282.355 295.319L281.87 295.442ZM282.387 297.936L282.882 298.003C282.97 297.364 283.124 296.548 283.347 295.552L282.859 295.442L282.371 295.333C282.145 296.344 281.984 297.19 281.892 297.868L282.387 297.936ZM282.859 295.442L283.345 295.559C283.584 294.557 283.816 293.608 284.04 292.711L283.555 292.59L283.07 292.469C282.845 293.369 282.612 294.321 282.372 295.326L282.859 295.442ZM283.555 292.59L284.039 292.717C284.278 291.803 284.448 291.183 284.55 290.849L284.072 290.703L283.593 290.558C283.485 290.912 283.311 291.55 283.071 292.463L283.555 292.59ZM284.072 290.703L284.548 290.855L290.77 271.314L290.293 271.162L289.817 271.01L283.595 290.551L284.072 290.703ZM290.293 271.162V271.662H297.324V271.162V270.662H290.293V271.162ZM111.054 324.162L111.527 324.323L111.752 323.662H111.054V324.162ZM99.8904 357V357.5H100.249L100.364 357.161L99.8904 357ZM92.2986 357L91.8251 357.161L91.9403 357.5H92.2986V357ZM81.158 324.162V323.662H80.4604L80.6845 324.323L81.158 324.162ZM88.1883 324.162L88.665 324.011L88.5546 323.662H88.1883V324.162ZM94.365 343.703L93.8883 343.854L93.8886 343.855L94.365 343.703ZM94.8816 345.567L94.398 345.694L94.3985 345.696L94.8816 345.567ZM95.6004 348.442L95.1136 348.557L95.1158 348.565L95.6004 348.442ZM96.117 350.936L95.6216 351.003H96.6124L96.117 350.936ZM96.5887 348.442L96.1023 348.326L96.1008 348.333L96.5887 348.442ZM97.285 345.59L96.8013 345.463L96.7999 345.469L97.285 345.59ZM97.8016 343.703L97.3251 343.551L97.3232 343.558L97.8016 343.703ZM104.023 324.162V323.662H103.658L103.547 324.01L104.023 324.162ZM111.054 324.162L110.58 324.001L99.417 356.839L99.8904 357L100.364 357.161L111.527 324.323L111.054 324.162ZM99.8904 357V356.5H92.2986V357V357.5H99.8904V357ZM92.2986 357L92.7721 356.839L81.6315 324.001L81.158 324.162L80.6845 324.323L91.8251 357.161L92.2986 357ZM81.158 324.162V324.662H88.1883V324.162V323.662H81.158V324.162ZM88.1883 324.162L87.7115 324.313L93.8883 343.854L94.365 343.703L94.8418 343.552L88.665 324.011L88.1883 324.162ZM94.365 343.703L93.8886 343.855C93.9889 344.17 94.1581 344.78 94.398 345.694L94.8816 345.567L95.3653 345.441C95.126 344.528 94.9508 343.895 94.8415 343.552L94.365 343.703ZM94.8816 345.567L94.3985 345.696C94.6367 346.589 94.8751 347.543 95.1137 348.557L95.6004 348.442L96.0871 348.328C95.8465 347.305 95.6058 346.342 95.3648 345.439L94.8816 345.567ZM95.6004 348.442L95.1158 348.565C95.3679 349.559 95.5353 350.37 95.6216 351.003L96.117 350.936L96.6124 350.868C96.519 350.183 96.342 349.332 96.085 348.319L95.6004 348.442ZM96.117 350.936L96.6124 351.003C96.6996 350.364 96.8536 349.548 97.0766 348.552L96.5887 348.442L96.1008 348.333C95.8745 349.344 95.7141 350.19 95.6216 350.868L96.117 350.936ZM96.5887 348.442L97.075 348.559C97.3142 347.557 97.5459 346.608 97.77 345.711L97.285 345.59L96.7999 345.469C96.5748 346.369 96.3423 347.321 96.1024 348.326L96.5887 348.442ZM97.285 345.59L97.7686 345.717C98.0083 344.803 98.1783 344.183 98.2799 343.849L97.8016 343.703L97.3232 343.558C97.2152 343.912 97.0407 344.55 96.8013 345.463L97.285 345.59ZM97.8016 343.703L98.278 343.855L104.5 324.314L104.023 324.162L103.547 324.01L97.3251 343.551L97.8016 343.703ZM104.023 324.162V324.662H111.054V324.162V323.662H104.023V324.162ZM136.599 357L136.121 357.146L136.229 357.5H136.599V357ZM134.218 349.184L134.697 349.038L134.589 348.684H134.218V349.184ZM122.247 349.184V348.684H121.876L121.768 349.038L122.247 349.184ZM119.866 357V357.5H120.236L120.344 357.146L119.866 357ZM112.364 357L111.892 356.834L111.658 357.5H112.364V357ZM123.954 324.027V323.527H123.6L123.482 323.862L123.954 324.027ZM132.467 324.027L132.938 323.861L132.82 323.527H132.467V324.027ZM144.101 357V357.5H144.808L144.573 356.834L144.101 357ZM132.556 343.344V343.844H133.236L133.034 343.195L132.556 343.344ZM130.176 335.707L129.696 335.848L129.698 335.856L130.176 335.707ZM129.569 333.753L129.09 333.895L129.093 333.906L129.569 333.753ZM128.828 331.305L128.347 331.442L128.35 331.452L128.828 331.305ZM128.244 329.126L128.73 329.007H127.758L128.244 329.126ZM127.615 331.417L127.135 331.275L127.134 331.281L127.615 331.417ZM126.357 335.707L126.835 335.855L126.835 335.853L126.357 335.707ZM123.999 343.344L123.521 343.196L123.321 343.844H123.999V343.344ZM136.599 357L137.078 356.854L134.697 349.038L134.218 349.184L133.74 349.329L136.121 357.146L136.599 357ZM134.218 349.184V348.684H122.247V349.184V349.684H134.218V349.184ZM122.247 349.184L121.768 349.038L119.388 356.854L119.866 357L120.344 357.146L122.725 349.329L122.247 349.184ZM119.866 357V356.5H112.364V357V357.5H119.866V357ZM112.364 357L112.836 357.166L124.426 324.193L123.954 324.027L123.482 323.862L111.892 356.834L112.364 357ZM123.954 324.027V324.527H132.467V324.027V323.527H123.954V324.027ZM132.467 324.027L131.995 324.194L143.63 357.166L144.101 357L144.573 356.834L132.938 323.861L132.467 324.027ZM144.101 357V356.5H136.599V357V357.5H144.101V357ZM132.556 343.344L133.034 343.195L130.653 335.558L130.176 335.707L129.698 335.856L132.079 343.493L132.556 343.344ZM130.176 335.707L130.655 335.566C130.504 335.051 130.3 334.396 130.045 333.6L129.569 333.753L129.093 333.906C129.347 334.697 129.548 335.344 129.696 335.848L130.176 335.707ZM129.569 333.753L130.048 333.611C129.808 332.8 129.561 331.982 129.306 331.157L128.828 331.305L128.35 331.452C128.604 332.274 128.851 333.088 129.09 333.895L129.569 333.753ZM128.828 331.305L129.309 331.167C129.07 330.333 128.877 329.613 128.73 329.007L128.244 329.126L127.758 329.244C127.91 329.867 128.106 330.599 128.347 331.442L128.828 331.305ZM128.244 329.126L127.758 329.007C127.611 329.611 127.404 330.366 127.135 331.275L127.615 331.417L128.095 331.559C128.365 330.641 128.577 329.869 128.73 329.244L128.244 329.126ZM127.615 331.417L127.134 331.281C126.88 332.177 126.633 333.029 126.394 333.835L126.874 333.978L127.353 334.12C127.593 333.309 127.841 332.453 128.096 331.553L127.615 331.417ZM126.874 333.978L126.394 333.835C126.155 334.644 125.983 335.219 125.879 335.561L126.357 335.707L126.835 335.853C126.941 335.506 127.114 334.928 127.353 334.12L126.874 333.978ZM126.357 335.707L125.879 335.559L123.521 343.196L123.999 343.344L124.476 343.491L126.835 335.855L126.357 335.707ZM123.999 343.344V343.844H132.556V343.344V342.844H123.999V343.344ZM174.656 349.543L174.222 349.295L174.221 349.295L174.656 349.543ZM168.524 355.136L168.734 355.589L168.736 355.588L168.524 355.136ZM149.545 357H149.045V357.5H149.545V357ZM149.545 324.162V323.662H149.045V324.162H149.545ZM168.816 326.004L168.598 326.454L168.6 326.455L168.816 326.004ZM174.701 331.417L174.269 331.668L174.269 331.669L174.701 331.417ZM168.479 334.472L168.023 334.676L168.025 334.681L168.479 334.472ZM165.335 330.99L165.096 331.43L165.098 331.431L165.335 330.99ZM156.507 329.867V329.367H156.007V329.867H156.507ZM156.507 351.25H156.007V351.75H156.507V351.25ZM167.064 348.532L166.696 348.194L166.694 348.196L167.064 348.532ZM176.79 340.267H176.29C176.29 343.903 175.59 346.904 174.222 349.295L174.656 349.543L175.09 349.791C176.566 347.211 177.29 344.027 177.29 340.267H176.79ZM174.656 349.543L174.221 349.295C172.867 351.673 170.903 353.467 168.312 354.683L168.524 355.136L168.736 355.588C171.506 354.289 173.63 352.355 175.09 349.79L174.656 349.543ZM168.524 355.136L168.314 354.682C165.715 355.887 162.564 356.5 158.843 356.5V357V357.5C162.67 357.5 165.973 356.87 168.734 355.589L168.524 355.136ZM158.843 357V356.5H149.545V357V357.5H158.843V357ZM149.545 357H150.045V324.162H149.545H149.045V357H149.545ZM149.545 324.162V324.662H159.854V324.162V323.662H149.545V324.162ZM159.854 324.162V324.662C163.239 324.662 166.149 325.265 168.598 326.454L168.816 326.004L169.034 325.554C166.422 324.287 163.357 323.662 159.854 323.662V324.162ZM168.816 326.004L168.6 326.455C171.041 327.625 172.927 329.36 174.269 331.668L174.701 331.417L175.133 331.166C173.689 328.682 171.652 326.809 169.032 325.553L168.816 326.004ZM174.701 331.417L174.269 331.669C175.606 333.955 176.29 336.812 176.29 340.267H176.79H177.29C177.29 336.683 176.581 333.64 175.132 331.165L174.701 331.417ZM169.557 340.446H170.057C170.057 337.976 169.692 335.906 168.933 334.262L168.479 334.472L168.025 334.681C168.704 336.151 169.057 338.065 169.057 340.446H169.557ZM168.479 334.472L168.935 334.267C168.191 332.604 167.07 331.356 165.571 330.55L165.335 330.99L165.098 331.431C166.384 332.122 167.36 333.195 168.023 334.676L168.479 334.472ZM165.335 330.99L165.573 330.551C164.104 329.752 162.309 329.367 160.214 329.367V329.867V330.367C162.191 330.367 163.81 330.731 165.096 331.43L165.335 330.99ZM160.214 329.867V329.367H156.507V329.867V330.367H160.214V329.867ZM156.507 329.867H156.007V351.25H156.507H157.007V329.867H156.507ZM156.507 351.25V351.75H159.495V351.25V350.75H156.507V351.25ZM159.495 351.25V351.75C162.978 351.75 165.66 350.82 167.434 348.869L167.064 348.532L166.694 348.196C165.174 349.868 162.809 350.75 159.495 350.75V351.25ZM167.064 348.532L167.433 348.87C169.211 346.932 170.057 344.094 170.057 340.446H169.557H169.057C169.057 343.956 168.242 346.509 166.696 348.194L167.064 348.532ZM198.719 356.281L198.522 355.822L198.52 355.822L198.719 356.281ZM188.814 357.225L188.745 357.72L188.746 357.72L188.814 357.225ZM185.692 356.573L185.547 357.052L185.556 357.054L185.692 356.573ZM182.862 355.473H182.362V355.786L182.644 355.923L182.862 355.473ZM182.862 349.004L183.064 348.547L182.362 348.236V349.004H182.862ZM187.713 350.868L187.557 351.343L187.713 350.868ZM195.44 351.25L195.244 350.79L195.241 350.791L195.44 351.25ZM194.317 344.467L194.082 344.908L194.085 344.91L194.317 344.467ZM191.06 342.827L191.277 342.377L191.273 342.375L191.06 342.827ZM188.567 341.524L188.315 341.956L188.32 341.959L188.567 341.524ZM184.007 336.897L183.555 337.111L183.559 337.119L184.007 336.897ZM188.432 324.813L188.634 325.271L188.636 325.27L188.432 324.813ZM199.236 324.297L199.109 324.781L199.115 324.782L199.236 324.297ZM204.11 326.004L204.572 326.196L204.759 325.744L204.312 325.547L204.11 326.004ZM201.864 331.417L201.676 331.88L202.135 332.067L202.326 331.609L201.864 331.417ZM197.798 330.002L197.66 330.483L197.666 330.484L197.798 330.002ZM191.914 329.912L192.115 330.37L192.124 330.366L191.914 329.912ZM190.521 331.08L190.943 331.349L190.946 331.343L190.521 331.08ZM190.723 334.786L190.339 335.106L190.344 335.112L190.349 335.118L190.723 334.786ZM192.79 336.313L192.552 336.753L192.555 336.755L192.79 336.313ZM196.249 338.043L196.033 338.494L196.035 338.495L196.249 338.043ZM200.539 340.536L200.243 340.939L200.248 340.943L200.539 340.536ZM203.301 343.568L202.863 343.81L202.865 343.812L203.301 343.568ZM204.267 347.881H203.767C203.767 349.743 203.317 351.337 202.434 352.683L202.852 352.957L203.27 353.231C204.274 351.702 204.767 349.912 204.767 347.881H204.267ZM202.852 352.957L202.434 352.683C201.552 354.027 200.257 355.076 198.522 355.822L198.719 356.281L198.917 356.741C200.805 355.929 202.265 354.762 203.27 353.231L202.852 352.957ZM198.719 356.281L198.52 355.822C196.803 356.567 194.688 356.949 192.161 356.949V357.449V357.949C194.784 357.949 197.042 357.553 198.918 356.74L198.719 356.281ZM192.161 357.449V356.949C191.045 356.949 189.952 356.876 188.882 356.729L188.814 357.225L188.746 357.72C189.862 357.873 191.001 357.949 192.161 357.949V357.449ZM188.814 357.225L188.883 356.729C187.827 356.583 186.808 356.37 185.828 356.092L185.692 356.573L185.556 357.054C186.582 357.345 187.645 357.567 188.745 357.72L188.814 357.225ZM185.692 356.573L185.837 356.095C184.873 355.803 183.954 355.445 183.079 355.022L182.862 355.473L182.644 355.923C183.567 356.369 184.535 356.745 185.547 357.052L185.692 356.573ZM182.862 355.473H183.362V349.004H182.862H182.362V355.473H182.862ZM182.862 349.004L182.66 349.461C184.232 350.157 185.865 350.784 187.557 351.343L187.713 350.868L187.87 350.393C186.208 349.844 184.606 349.229 183.064 348.547L182.862 349.004ZM187.713 350.868L187.557 351.343C189.281 351.912 190.996 352.199 192.7 352.199V351.699V351.199C191.11 351.199 189.5 350.932 187.87 350.393L187.713 350.868ZM192.7 351.699V352.199C193.874 352.199 194.864 352.046 195.639 351.709L195.44 351.25L195.241 350.791C194.639 351.053 193.801 351.199 192.7 351.199V351.699ZM195.44 351.25L195.636 351.71C196.412 351.38 197.015 350.907 197.396 350.272L196.967 350.015L196.539 349.757C196.291 350.17 195.876 350.521 195.244 350.79L195.44 351.25ZM196.967 350.015L197.396 350.272C197.762 349.662 197.939 348.973 197.939 348.218H197.439H196.939C196.939 348.811 196.802 349.319 196.539 349.757L196.967 350.015ZM197.439 348.218H197.939C197.939 347.269 197.615 346.442 196.971 345.762L196.608 346.106L196.245 346.451C196.709 346.939 196.939 347.519 196.939 348.218H197.439ZM196.608 346.106L196.971 345.762C196.368 345.127 195.554 344.55 194.549 344.024L194.317 344.467L194.085 344.91C195.026 345.402 195.74 345.918 196.245 346.451L196.608 346.106ZM194.317 344.467L194.552 344.025C193.586 343.512 192.494 342.963 191.277 342.377L191.06 342.827L190.843 343.278C192.051 343.859 193.131 344.403 194.082 344.908L194.317 344.467ZM191.06 342.827L191.273 342.375C190.523 342.022 189.703 341.594 188.813 341.089L188.567 341.524L188.32 341.959C189.228 342.473 190.07 342.914 190.847 343.28L191.06 342.827ZM188.567 341.524L188.819 341.093C187.954 340.588 187.129 339.974 186.346 339.248L186.006 339.615L185.667 339.982C186.5 340.754 187.383 341.413 188.315 341.956L188.567 341.524ZM186.006 339.615L186.346 339.248C185.586 338.544 184.955 337.689 184.456 336.676L184.007 336.897L183.559 337.119C184.108 338.232 184.81 339.189 185.667 339.982L186.006 339.615ZM184.007 336.897L184.459 336.684C183.989 335.687 183.744 334.476 183.744 333.034H183.244H182.744C182.744 334.587 183.008 335.951 183.555 337.111L184.007 336.897ZM183.244 333.034H183.744C183.744 331.151 184.174 329.572 185.011 328.274L184.591 328.003L184.171 327.732C183.212 329.219 182.744 330.994 182.744 333.034H183.244ZM184.591 328.003L185.011 328.274C185.852 326.971 187.052 325.969 188.634 325.271L188.432 324.813L188.23 324.356C186.488 325.125 185.128 326.249 184.171 327.732L184.591 328.003ZM188.432 324.813L188.636 325.27C190.236 324.556 192.14 324.19 194.362 324.19V323.69V323.19C192.032 323.19 189.983 323.574 188.228 324.357L188.432 324.813ZM194.362 323.69V324.19C196.029 324.19 197.611 324.388 199.109 324.781L199.236 324.297L199.363 323.813C197.776 323.397 196.109 323.19 194.362 323.19V323.69ZM199.236 324.297L199.115 324.782C200.64 325.163 202.238 325.722 203.908 326.461L204.11 326.004L204.312 325.547C202.598 324.788 200.946 324.209 199.357 323.812L199.236 324.297ZM204.11 326.004L203.648 325.812L201.402 331.225L201.864 331.417L202.326 331.609L204.572 326.196L204.11 326.004ZM201.864 331.417L202.052 330.954C200.527 330.335 199.152 329.856 197.931 329.52L197.798 330.002L197.666 330.484C198.84 330.807 200.176 331.272 201.676 331.88L201.864 331.417ZM197.798 330.002L197.937 329.521C196.694 329.164 195.427 328.985 194.137 328.985V329.485V329.985C195.333 329.985 196.507 330.151 197.66 330.482L197.798 330.002ZM194.137 329.485V328.985C193.216 328.985 192.399 329.136 191.703 329.458L191.914 329.912L192.124 330.366C192.656 330.119 193.322 329.985 194.137 329.985V329.485ZM191.914 329.912L191.713 329.454C191.017 329.759 190.47 330.212 190.096 330.817L190.521 331.08L190.946 331.343C191.201 330.93 191.582 330.604 192.115 330.37L191.914 329.912ZM190.521 331.08L190.099 330.812C189.728 331.396 189.549 332.068 189.549 332.81H190.049H190.549C190.549 332.234 190.686 331.753 190.943 331.349L190.521 331.08ZM190.049 332.81H189.549C189.549 333.691 189.807 334.467 190.339 335.106L190.723 334.786L191.107 334.466C190.741 334.027 190.549 333.485 190.549 332.81H190.049ZM190.723 334.786L190.349 335.118C190.866 335.701 191.609 336.243 192.552 336.753L192.79 336.313L193.027 335.874C192.143 335.395 191.509 334.919 191.097 334.455L190.723 334.786ZM192.79 336.313L192.555 336.755C193.492 337.253 194.651 337.833 196.033 338.494L196.249 338.043L196.464 337.592C195.091 336.935 193.944 336.362 193.025 335.872L192.79 336.313ZM196.249 338.043L196.035 338.495C197.69 339.278 199.091 340.094 200.243 340.939L200.539 340.536L200.835 340.133C199.62 339.242 198.161 338.395 196.462 337.591L196.249 338.043ZM200.539 340.536L200.248 340.943C201.392 341.758 202.259 342.714 202.863 343.81L203.301 343.568L203.739 343.327C203.056 342.087 202.081 341.021 200.829 340.129L200.539 340.536ZM203.301 343.568L202.865 343.812C203.456 344.871 203.767 346.219 203.767 347.881H204.267H204.767C204.767 346.099 204.434 344.571 203.738 343.325L203.301 343.568ZM224.175 357V357.5H224.675V357H224.175ZM217.212 357H216.712V357.5H217.212V357ZM217.212 329.957H217.712V329.457H217.212V329.957ZM208.295 329.957H207.795V330.457H208.295V329.957ZM208.295 324.162V323.662H207.795V324.162H208.295ZM233.092 324.162H233.592V323.662H233.092V324.162ZM233.092 329.957V330.457H233.592V329.957H233.092ZM224.175 329.957V329.457H223.675V329.957H224.175ZM224.175 357V356.5H217.212V357V357.5H224.175V357ZM217.212 357H217.712V329.957H217.212H216.712V357H217.212ZM217.212 329.957V329.457H208.295V329.957V330.457H217.212V329.957ZM208.295 329.957H208.795V324.162H208.295H207.795V329.957H208.295ZM208.295 324.162V324.662H233.092V324.162V323.662H208.295V324.162ZM233.092 324.162H232.592V329.957H233.092H233.592V324.162H233.092ZM233.092 329.957V329.457H224.175V329.957V330.457H233.092V329.957ZM224.175 329.957H223.675V357H224.175H224.675V329.957H224.175ZM258.346 357V357.5H258.846V357H258.346ZM239.434 357H238.934V357.5H239.434V357ZM239.434 324.162V323.662H238.934V324.162H239.434ZM258.346 324.162H258.846V323.662H258.346V324.162ZM258.346 329.867V330.367H258.846V329.867H258.346ZM246.397 329.867V329.367H245.897V329.867H246.397ZM246.397 337.077H245.897V337.577H246.397V337.077ZM257.515 337.077H258.015V336.577H257.515V337.077ZM257.515 342.782V343.282H258.015V342.782H257.515ZM246.397 342.782V342.282H245.897V342.782H246.397ZM246.397 351.25H245.897V351.75H246.397V351.25ZM258.346 351.25H258.846V350.75H258.346V351.25ZM258.346 357V356.5H239.434V357V357.5H258.346V357ZM239.434 357H239.934V324.162H239.434H238.934V357H239.434ZM239.434 324.162V324.662H258.346V324.162V323.662H239.434V324.162ZM258.346 324.162H257.846V329.867H258.346H258.846V324.162H258.346ZM258.346 329.867V329.367H246.397V329.867V330.367H258.346V329.867ZM246.397 329.867H245.897V337.077H246.397H246.897V329.867H246.397ZM246.397 337.077V337.577H257.515V337.077V336.577H246.397V337.077ZM257.515 337.077H257.015V342.782H257.515H258.015V337.077H257.515ZM257.515 342.782V342.282H246.397V342.782V343.282H257.515V342.782ZM246.397 342.782H245.897V351.25H246.397H246.897V342.782H246.397ZM246.397 351.25V351.75H258.346V351.25V350.75H246.397V351.25ZM258.346 351.25H257.846V357H258.346H258.846V351.25H258.346ZM295.639 357V357.5H296.139V357H295.639ZM286.789 357L286.356 357.249L286.5 357.5H286.789V357ZM272.504 332.158L272.938 331.909L272.793 331.658H272.504V332.158ZM272.302 332.158V331.658H271.772L271.803 332.187L272.302 332.158ZM272.594 338.425L272.094 338.446L272.094 338.447L272.594 338.425ZM272.729 341.547H273.229V341.536L273.228 341.525L272.729 341.547ZM272.729 357V357.5H273.229V357H272.729ZM266.507 357H266.007V357.5H266.507V357ZM266.507 324.162V323.662H266.007V324.162H266.507ZM275.289 324.162L275.722 323.911L275.577 323.662H275.289V324.162ZM289.552 348.757L289.12 349.008L289.264 349.257H289.552V348.757ZM289.709 348.757V349.257H290.224L290.209 348.742L289.709 348.757ZM289.462 342.715L288.962 342.73L288.963 342.737L289.462 342.715ZM289.372 339.705H288.872V339.713L288.873 339.72L289.372 339.705ZM289.372 324.162V323.662H288.872V324.162H289.372ZM295.639 324.162H296.139V323.662H295.639V324.162ZM295.639 357V356.5H286.789V357V357.5H295.639V357ZM286.789 357L287.223 356.751L272.938 331.909L272.504 332.158L272.071 332.407L286.356 357.249L286.789 357ZM272.504 332.158V331.658H272.302V332.158V332.658H272.504V332.158ZM272.302 332.158L271.803 332.187C271.863 333.218 271.915 334.256 271.96 335.302L272.459 335.28L272.959 335.259C272.914 334.208 272.861 333.165 272.801 332.129L272.302 332.158ZM272.459 335.28L271.96 335.302C271.961 335.324 271.96 335.304 271.961 335.326C271.962 335.348 271.961 335.329 271.962 335.351C271.963 335.373 271.962 335.354 271.963 335.375C271.964 335.397 271.963 335.378 271.964 335.4C271.965 335.422 271.964 335.403 271.965 335.425C271.966 335.446 271.965 335.427 271.966 335.449C271.967 335.471 271.966 335.452 271.967 335.474C271.968 335.495 271.967 335.476 271.968 335.498C271.969 335.52 271.968 335.501 271.969 335.523C271.97 335.545 271.969 335.526 271.97 335.547C271.971 335.569 271.97 335.55 271.971 335.572C271.972 335.594 271.971 335.575 271.972 335.596C271.973 335.618 271.972 335.599 271.973 335.621C271.974 335.643 271.974 335.624 271.974 335.646C271.975 335.667 271.975 335.648 271.976 335.67C271.976 335.692 271.976 335.673 271.977 335.695C271.977 335.717 271.977 335.697 271.978 335.719C271.979 335.741 271.978 335.722 271.979 335.744C271.98 335.766 271.979 335.747 271.98 335.768C271.981 335.79 271.98 335.771 271.981 335.793C271.982 335.815 271.981 335.796 271.982 335.818C271.983 335.839 271.982 335.82 271.983 335.842C271.984 335.864 271.983 335.845 271.984 335.867C271.985 335.889 271.984 335.869 271.985 335.891C271.986 335.913 271.985 335.894 271.986 335.916C271.987 335.938 271.986 335.919 271.987 335.94C271.988 335.962 271.987 335.943 271.988 335.965C271.989 335.987 271.988 335.968 271.989 335.99C271.99 336.011 271.989 335.992 271.99 336.014C271.991 336.036 271.99 336.017 271.991 336.039C271.992 336.061 271.991 336.041 271.992 336.063C271.993 336.085 271.992 336.066 271.993 336.088C271.994 336.11 271.994 336.091 271.994 336.112C271.995 336.134 271.995 336.115 271.996 336.137C271.996 336.159 271.996 336.14 271.997 336.162C271.997 336.183 271.997 336.164 271.998 336.186C271.999 336.208 271.998 336.189 271.999 336.211C272 336.232 271.999 336.213 272 336.235C272.001 336.257 272 336.238 272.001 336.26C272.002 336.282 272.001 336.263 272.002 336.284C272.003 336.306 272.002 336.287 272.003 336.309C272.004 336.331 272.003 336.312 272.004 336.333C272.005 336.355 272.004 336.336 272.005 336.358C272.006 336.38 272.005 336.361 272.006 336.383C272.007 336.404 272.006 336.385 272.007 336.407C272.008 336.429 272.007 336.41 272.008 336.432C272.009 336.454 272.008 336.434 272.009 336.456C272.01 336.478 272.009 336.459 272.01 336.481C272.011 336.503 272.01 336.484 272.011 336.505C272.012 336.527 272.011 336.508 272.012 336.53C272.013 336.552 272.012 336.533 272.013 336.555C272.014 336.576 272.014 336.557 272.014 336.579C272.015 336.601 272.015 336.582 272.016 336.604C272.016 336.626 272.016 336.606 272.017 336.628C272.018 336.65 272.017 336.631 272.018 336.653C272.019 336.675 272.018 336.656 272.019 336.677C272.02 336.699 272.019 336.68 272.02 336.702C272.021 336.724 272.02 336.705 272.021 336.727C272.022 336.748 272.021 336.729 272.022 336.751C272.023 336.773 272.022 336.754 272.023 336.776C272.024 336.798 272.023 336.778 272.024 336.8C272.025 336.822 272.024 336.803 272.025 336.825C272.026 336.847 272.025 336.828 272.026 336.849C272.027 336.871 272.026 336.852 272.027 336.874C272.031 336.961 272.032 336.983 272.036 337.07C272.039 337.158 272.04 337.18 272.044 337.267C272.048 337.354 272.049 337.376 272.052 337.464C272.056 337.551 272.057 337.573 272.061 337.66C272.065 337.747 272.065 337.769 272.069 337.857C272.073 337.944 272.074 337.966 272.078 338.053C272.081 338.14 272.082 338.162 272.086 338.25C272.09 338.337 272.091 338.359 272.094 338.446L272.594 338.425L273.094 338.403C273.093 338.382 273.093 338.401 273.093 338.379C273.092 338.357 273.092 338.376 273.091 338.354C273.091 338.332 273.091 338.352 273.09 338.33C273.089 338.308 273.09 338.327 273.089 338.305C273.088 338.283 273.089 338.302 273.088 338.281C273.087 338.259 273.088 338.278 273.087 338.256C273.086 338.234 273.087 338.253 273.086 338.231C273.085 338.21 273.086 338.229 273.085 338.207C273.084 338.185 273.085 338.204 273.084 338.182C273.083 338.16 273.084 338.18 273.083 338.158C273.082 338.136 273.083 338.155 273.082 338.133C273.081 338.111 273.082 338.13 273.081 338.109C273.08 338.087 273.081 338.106 273.08 338.084C273.079 338.062 273.08 338.081 273.079 338.059C273.078 338.038 273.079 338.057 273.078 338.035C273.077 338.013 273.078 338.032 273.077 338.01C273.076 337.988 273.077 338.008 273.076 337.986C273.075 337.964 273.076 337.983 273.075 337.961C273.074 337.939 273.074 337.958 273.074 337.937C273.073 337.915 273.073 337.934 273.073 337.912C273.072 337.89 273.072 337.909 273.071 337.887C273.071 337.866 273.071 337.885 273.07 337.863C273.069 337.841 273.07 337.86 273.069 337.838C273.068 337.817 273.069 337.836 273.068 337.814C273.067 337.792 273.068 337.811 273.067 337.789C273.066 337.767 273.067 337.786 273.066 337.765C273.065 337.743 273.066 337.762 273.065 337.74C273.064 337.718 273.065 337.737 273.064 337.716C273.063 337.694 273.064 337.713 273.063 337.691C273.062 337.669 273.063 337.688 273.062 337.666C273.061 337.645 273.062 337.664 273.061 337.642C273.06 337.62 273.061 337.639 273.06 337.617C273.059 337.595 273.06 337.615 273.059 337.593C273.058 337.571 273.059 337.59 273.058 337.568C273.057 337.546 273.058 337.565 273.057 337.544C273.056 337.522 273.057 337.541 273.056 337.519C273.055 337.497 273.056 337.516 273.055 337.494C273.054 337.473 273.054 337.492 273.054 337.47C273.053 337.448 273.053 337.467 273.053 337.445C273.052 337.423 273.052 337.443 273.051 337.421C273.051 337.399 273.051 337.418 273.05 337.396C273.049 337.374 273.05 337.393 273.049 337.372C273.048 337.35 273.049 337.369 273.048 337.347C273.047 337.325 273.048 337.344 273.047 337.322C273.046 337.301 273.047 337.32 273.046 337.298C273.045 337.276 273.046 337.295 273.045 337.273C273.044 337.251 273.045 337.271 273.044 337.249C273.043 337.227 273.044 337.246 273.043 337.224C273.042 337.202 273.043 337.221 273.042 337.2C273.041 337.178 273.042 337.197 273.041 337.175C273.04 337.153 273.041 337.172 273.04 337.15C273.039 337.129 273.04 337.148 273.039 337.126C273.038 337.104 273.039 337.123 273.038 337.101C273.037 337.08 273.038 337.099 273.037 337.077C273.036 337.055 273.037 337.074 273.036 337.052C273.035 337.03 273.036 337.049 273.035 337.028C273.034 337.006 273.034 337.025 273.034 337.003C273.033 336.981 273.033 337 273.033 336.979C273.032 336.957 273.032 336.976 273.031 336.954C273.031 336.932 273.031 336.951 273.03 336.929C273.029 336.908 273.03 336.927 273.029 336.905C273.028 336.883 273.029 336.902 273.028 336.88C273.027 336.858 273.028 336.878 273.027 336.856C273.026 336.834 273.027 336.853 273.026 336.831C273.022 336.744 273.021 336.722 273.018 336.635C273.014 336.547 273.013 336.525 273.009 336.438C273.006 336.351 273.005 336.329 273.001 336.242C272.997 336.154 272.996 336.132 272.992 336.045C272.989 335.958 272.988 335.936 272.984 335.848C272.98 335.761 272.979 335.739 272.976 335.652C272.972 335.565 272.971 335.543 272.967 335.455C272.963 335.368 272.963 335.346 272.959 335.259L272.459 335.28ZM272.594 338.425L272.094 338.447C272.139 339.48 272.184 340.52 272.229 341.568L272.729 341.547L273.228 341.525C273.183 340.477 273.138 339.436 273.094 338.403L272.594 338.425ZM272.729 341.547H272.229V357H272.729H273.229V341.547H272.729ZM272.729 357V356.5H266.507V357V357.5H272.729V357ZM266.507 357H267.007V324.162H266.507H266.007V357H266.507ZM266.507 324.162V324.662H275.289V324.162V323.662H266.507V324.162ZM275.289 324.162L274.857 324.413L289.12 349.008L289.552 348.757L289.985 348.506L275.722 323.911L275.289 324.162ZM289.552 348.757V349.257H289.709V348.757V348.257H289.552V348.757ZM289.709 348.757L290.209 348.742C290.179 347.721 290.141 346.708 290.096 345.702L289.597 345.725L289.097 345.747C289.142 346.748 289.18 347.756 289.209 348.772L289.709 348.757ZM289.597 345.725L290.096 345.702C290.096 345.681 290.095 345.676 290.094 345.655C290.093 345.634 290.093 345.629 290.092 345.608C290.091 345.587 290.091 345.582 290.09 345.561C290.089 345.54 290.089 345.535 290.088 345.514C290.087 345.493 290.087 345.488 290.086 345.467C290.085 345.446 290.085 345.441 290.084 345.42C290.083 345.399 290.083 345.394 290.082 345.373C290.081 345.352 290.081 345.347 290.08 345.326C290.079 345.305 290.078 345.3 290.077 345.279C290.077 345.258 290.076 345.253 290.075 345.232C290.074 345.211 290.074 345.206 290.073 345.185C290.072 345.164 290.072 345.159 290.071 345.138C290.07 345.117 290.07 345.112 290.069 345.091C290.068 345.07 290.068 345.065 290.067 345.044C290.066 345.023 290.066 345.018 290.065 344.997C290.064 344.976 290.064 344.971 290.063 344.95C290.062 344.929 290.062 344.924 290.061 344.903C290.06 344.882 290.059 344.877 290.059 344.856C290.058 344.835 290.057 344.83 290.056 344.809C290.056 344.788 290.055 344.783 290.054 344.762C290.053 344.741 290.053 344.736 290.052 344.715C290.051 344.694 290.051 344.689 290.05 344.668C290.049 344.647 290.049 344.642 290.048 344.621C290.047 344.6 290.047 344.594 290.046 344.574C290.045 344.553 290.045 344.547 290.044 344.527C290.043 344.506 290.043 344.5 290.042 344.48C290.041 344.459 290.041 344.453 290.04 344.432C290.039 344.412 290.038 344.406 290.037 344.385C290.037 344.365 290.036 344.359 290.035 344.338C290.034 344.318 290.034 344.312 290.033 344.291C290.032 344.271 290.032 344.265 290.031 344.244C290.03 344.223 290.03 344.218 290.029 344.197C290.029 344.187 290.028 344.184 290.028 344.174C290.028 344.163 290.027 344.161 290.027 344.15C290.026 344.14 290.026 344.137 290.026 344.127C290.025 344.116 290.025 344.114 290.025 344.103C290.024 344.093 290.024 344.09 290.024 344.08C290.023 344.069 290.023 344.067 290.023 344.056C290.022 344.046 290.022 344.043 290.022 344.033C290.021 344.022 290.021 344.02 290.021 344.009C290.02 343.999 290.02 343.996 290.02 343.986C290.019 343.975 290.019 343.973 290.019 343.962C290.018 343.952 290.018 343.949 290.017 343.939C290.017 343.928 290.017 343.926 290.016 343.915C290.016 343.905 290.016 343.902 290.015 343.892C290.015 343.881 290.015 343.879 290.014 343.868C290.014 343.858 290.014 343.855 290.013 343.845C290.013 343.834 290.013 343.832 290.012 343.821C290.012 343.811 290.012 343.808 290.011 343.798C290.011 343.787 290.011 343.785 290.01 343.774C290.01 343.764 290.01 343.761 290.009 343.751C290.009 343.74 290.008 343.738 290.008 343.727C290.008 343.717 290.007 343.714 290.007 343.704C290.007 343.693 290.006 343.691 290.006 343.68C290.005 343.67 290.005 343.667 290.005 343.657C290.004 343.646 290.004 343.643 290.004 343.633C290.003 343.623 290.003 343.62 290.003 343.61C290.002 343.599 290.002 343.596 290.002 343.586C290.001 343.576 290.001 343.573 290.001 343.562C290 343.552 290 343.549 290 343.539C289.999 343.529 289.999 343.526 289.999 343.515C289.998 343.505 289.998 343.502 289.997 343.492C289.997 343.481 289.997 343.479 289.996 343.468C289.996 343.458 289.996 343.455 289.995 343.445C289.995 343.434 289.995 343.432 289.994 343.421C289.994 343.411 289.994 343.408 289.993 343.398C289.993 343.387 289.993 343.385 289.992 343.374C289.992 343.364 289.992 343.361 289.991 343.351C289.991 343.34 289.991 343.338 289.99 343.327C289.99 343.317 289.99 343.314 289.989 343.304C289.989 343.293 289.988 343.291 289.988 343.28C289.988 343.27 289.987 343.267 289.987 343.257C289.986 343.246 289.986 343.244 289.986 343.233C289.985 343.223 289.985 343.22 289.985 343.21C289.984 343.199 289.984 343.197 289.984 343.186C289.983 343.176 289.983 343.173 289.983 343.163C289.982 343.152 289.982 343.15 289.982 343.139C289.981 343.129 289.981 343.126 289.981 343.116C289.98 343.105 289.98 343.103 289.98 343.092C289.979 343.082 289.979 343.079 289.979 343.069C289.978 343.058 289.978 343.056 289.977 343.045C289.977 343.035 289.977 343.032 289.976 343.022C289.976 343.011 289.976 343.009 289.975 342.998C289.975 342.988 289.975 342.985 289.974 342.975C289.974 342.964 289.974 342.962 289.973 342.951C289.973 342.941 289.973 342.938 289.972 342.928C289.972 342.917 289.972 342.915 289.971 342.904C289.971 342.894 289.971 342.891 289.97 342.881C289.97 342.87 289.97 342.868 289.969 342.857C289.969 342.847 289.968 342.844 289.968 342.834C289.968 342.823 289.967 342.82 289.967 342.81C289.966 342.8 289.966 342.797 289.966 342.787C289.965 342.776 289.965 342.773 289.965 342.763C289.964 342.753 289.964 342.75 289.964 342.74C289.963 342.729 289.963 342.726 289.963 342.716C289.962 342.706 289.962 342.703 289.962 342.692L289.462 342.715L288.963 342.737C288.964 342.758 288.964 342.763 288.965 342.784C288.966 342.805 288.966 342.81 288.967 342.831C288.968 342.852 288.968 342.857 288.969 342.878C288.97 342.899 288.97 342.904 288.971 342.925C288.972 342.946 288.972 342.951 288.973 342.972C288.974 342.993 288.974 342.998 288.975 343.019C288.976 343.04 288.977 343.046 288.977 343.066C288.978 343.087 288.979 343.093 288.98 343.113C288.98 343.134 288.981 343.14 288.982 343.16C288.983 343.181 288.983 343.187 288.984 343.207C288.985 343.228 288.985 343.234 288.986 343.255C288.987 343.275 288.987 343.281 288.988 343.302C288.989 343.322 288.989 343.328 288.99 343.349C288.991 343.369 288.991 343.375 288.992 343.396C288.993 343.416 288.993 343.422 288.994 343.443C288.995 343.464 288.995 343.469 288.996 343.49C288.997 343.511 288.998 343.516 288.998 343.537C288.999 343.558 289 343.563 289.001 343.584C289.002 343.605 289.002 343.61 289.003 343.631C289.004 343.652 289.004 343.657 289.005 343.678C289.006 343.699 289.006 343.704 289.007 343.725C289.008 343.746 289.008 343.751 289.009 343.772C289.01 343.793 289.01 343.798 289.011 343.819C289.012 343.84 289.012 343.845 289.013 343.866C289.014 343.887 289.014 343.892 289.015 343.913C289.016 343.934 289.017 343.939 289.017 343.96C289.018 343.981 289.019 343.986 289.02 344.007C289.02 344.028 289.021 344.033 289.022 344.054C289.023 344.075 289.023 344.08 289.024 344.101C289.025 344.122 289.025 344.127 289.026 344.148C289.027 344.169 289.027 344.174 289.028 344.195C289.029 344.216 289.029 344.221 289.03 344.242C289.031 344.253 289.031 344.255 289.031 344.266C289.032 344.276 289.032 344.279 289.032 344.289C289.033 344.3 289.033 344.302 289.033 344.313C289.034 344.323 289.034 344.326 289.034 344.336C289.035 344.347 289.035 344.349 289.035 344.36C289.036 344.37 289.036 344.373 289.036 344.383C289.037 344.394 289.037 344.396 289.037 344.407C289.038 344.417 289.038 344.42 289.038 344.43C289.039 344.441 289.039 344.443 289.04 344.454C289.04 344.464 289.04 344.467 289.041 344.477C289.041 344.488 289.041 344.49 289.042 344.501C289.042 344.511 289.042 344.514 289.043 344.524C289.043 344.535 289.043 344.537 289.044 344.548C289.044 344.558 289.044 344.561 289.045 344.571C289.045 344.582 289.045 344.584 289.046 344.595C289.046 344.605 289.046 344.608 289.047 344.618C289.047 344.629 289.048 344.631 289.048 344.642C289.048 344.652 289.049 344.655 289.049 344.665C289.049 344.676 289.05 344.678 289.05 344.689C289.051 344.699 289.051 344.702 289.051 344.712C289.052 344.723 289.052 344.725 289.052 344.736C289.053 344.746 289.053 344.749 289.053 344.759C289.054 344.77 289.054 344.772 289.054 344.783C289.055 344.793 289.055 344.796 289.055 344.806C289.056 344.817 289.056 344.819 289.056 344.83C289.057 344.84 289.057 344.843 289.057 344.853C289.058 344.864 289.058 344.867 289.059 344.877C289.059 344.887 289.059 344.89 289.06 344.9C289.06 344.911 289.06 344.914 289.061 344.924C289.061 344.934 289.061 344.937 289.062 344.948C289.062 344.958 289.062 344.961 289.063 344.971C289.063 344.981 289.063 344.984 289.064 344.995C289.064 345.005 289.064 345.008 289.065 345.018C289.065 345.028 289.065 345.031 289.066 345.042C289.066 345.052 289.066 345.055 289.067 345.065C289.067 345.076 289.068 345.078 289.068 345.089C289.068 345.099 289.069 345.102 289.069 345.112C289.069 345.123 289.07 345.125 289.07 345.136C289.071 345.146 289.071 345.149 289.071 345.159C289.072 345.17 289.072 345.172 289.072 345.183C289.073 345.193 289.073 345.196 289.073 345.206C289.074 345.217 289.074 345.219 289.074 345.23C289.075 345.24 289.075 345.243 289.075 345.253C289.076 345.264 289.076 345.266 289.076 345.277C289.077 345.287 289.077 345.29 289.077 345.3C289.078 345.311 289.078 345.313 289.079 345.324C289.079 345.334 289.079 345.337 289.08 345.347C289.08 345.358 289.08 345.36 289.081 345.371C289.081 345.381 289.081 345.384 289.082 345.394C289.082 345.405 289.082 345.407 289.083 345.418C289.083 345.428 289.083 345.431 289.084 345.441C289.084 345.452 289.084 345.454 289.085 345.465C289.085 345.475 289.085 345.478 289.086 345.488C289.086 345.499 289.086 345.501 289.087 345.512C289.087 345.522 289.088 345.525 289.088 345.535C289.088 345.546 289.089 345.548 289.089 345.559C289.09 345.569 289.09 345.572 289.09 345.582C289.091 345.593 289.091 345.595 289.091 345.606C289.092 345.616 289.092 345.619 289.092 345.629C289.093 345.64 289.093 345.642 289.093 345.653C289.094 345.663 289.094 345.666 289.094 345.676C289.095 345.687 289.095 345.689 289.095 345.7C289.096 345.71 289.096 345.713 289.096 345.723C289.097 345.734 289.097 345.737 289.097 345.747L289.597 345.725ZM289.462 342.715L289.962 342.7C289.957 342.54 289.956 342.483 289.951 342.324C289.946 342.164 289.944 342.107 289.939 341.947C289.935 341.788 289.933 341.731 289.928 341.571C289.924 341.412 289.922 341.355 289.917 341.195C289.917 341.184 289.916 341.159 289.916 341.148C289.915 341.137 289.915 341.112 289.914 341.101C289.914 341.089 289.913 341.066 289.913 341.054C289.913 341.043 289.912 341.018 289.911 341.007C289.911 340.996 289.91 340.971 289.91 340.96C289.91 340.949 289.909 340.923 289.909 340.913C289.908 340.902 289.908 340.876 289.907 340.866C289.907 340.855 289.906 340.829 289.906 340.819C289.906 340.808 289.905 340.782 289.904 340.772C289.904 340.761 289.903 340.735 289.903 340.725C289.903 340.714 289.902 340.688 289.902 340.678C289.901 340.667 289.901 340.641 289.9 340.631C289.9 340.62 289.899 340.594 289.899 340.584C289.898 340.573 289.898 340.547 289.897 340.537C289.897 340.526 289.896 340.5 289.896 340.49C289.896 340.479 289.895 340.453 289.895 340.443C289.894 340.432 289.893 340.406 289.893 340.396C289.893 340.385 289.892 340.359 289.892 340.349C289.891 340.338 289.891 340.312 289.89 340.302C289.89 340.291 289.889 340.265 289.889 340.254C289.889 340.244 289.888 340.218 289.888 340.207C289.887 340.197 289.886 340.171 289.886 340.16C289.886 340.15 289.885 340.124 289.885 340.113C289.884 340.103 289.884 340.077 289.883 340.066C289.883 340.056 289.882 340.03 289.882 340.019C289.882 340.009 289.881 339.983 289.881 339.972C289.88 339.962 289.879 339.936 289.879 339.925C289.879 339.915 289.878 339.889 289.878 339.878C289.877 339.868 289.877 339.842 289.876 339.831C289.876 339.821 289.875 339.795 289.875 339.784C289.875 339.774 289.874 339.748 289.874 339.737C289.873 339.727 289.872 339.701 289.872 339.69L289.372 339.705L288.873 339.72C288.877 339.882 288.879 339.934 288.884 340.096C288.889 340.258 288.89 340.31 288.895 340.472C288.9 340.635 288.901 340.687 288.906 340.849C288.911 341.011 288.913 341.063 288.917 341.225C288.918 341.236 288.919 341.261 288.919 341.272C288.919 341.283 288.92 341.308 288.92 341.319C288.921 341.33 288.921 341.355 288.922 341.366C288.922 341.377 288.923 341.402 288.923 341.413C288.923 341.424 288.924 341.449 288.925 341.46C288.925 341.471 288.926 341.496 288.926 341.507C288.926 341.518 288.927 341.543 288.927 341.554C288.928 341.565 288.928 341.59 288.929 341.601C288.929 341.612 288.93 341.637 288.93 341.648C288.93 341.659 288.931 341.684 288.932 341.695C288.932 341.706 288.933 341.731 288.933 341.742C288.933 341.753 288.934 341.778 288.934 341.789C288.935 341.8 288.935 341.825 288.936 341.836C288.936 341.847 288.937 341.872 288.937 341.883C288.937 341.894 288.938 341.919 288.939 341.93C288.939 341.941 288.94 341.966 288.94 341.977C288.94 341.988 288.941 342.013 288.941 342.024C288.942 342.035 288.942 342.06 288.943 342.071C288.943 342.082 288.944 342.107 288.944 342.118C288.944 342.129 288.945 342.154 288.946 342.165C288.946 342.177 288.947 342.201 288.947 342.212C288.947 342.224 288.948 342.248 288.948 342.259C288.949 342.271 288.949 342.295 288.95 342.307C288.95 342.318 288.951 342.342 288.951 342.354C288.952 342.365 288.952 342.389 288.953 342.401C288.953 342.412 288.954 342.437 288.954 342.448C288.954 342.459 288.955 342.484 288.955 342.495C288.956 342.506 288.956 342.531 288.957 342.542C288.957 342.553 288.958 342.578 288.958 342.589C288.959 342.6 288.959 342.625 288.96 342.636C288.96 342.647 288.961 342.672 288.961 342.683C288.961 342.694 288.962 342.719 288.962 342.73L289.462 342.715ZM289.372 339.705H289.872V324.162H289.372H288.872V339.705H289.372ZM289.372 324.162V324.662H295.639V324.162V323.662H289.372V324.162ZM295.639 324.162H295.139V357H295.639H296.139V324.162H295.639ZM325.318 357L324.839 357.146L324.947 357.5H325.318V357ZM322.937 349.184L323.415 349.038L323.307 348.684H322.937V349.184ZM310.965 349.184V348.684H310.595L310.487 349.038L310.965 349.184ZM308.584 357V357.5H308.955L309.062 357.146L308.584 357ZM301.082 357L300.611 356.834L300.376 357.5H301.082V357ZM312.672 324.027V323.527H312.318L312.2 323.862L312.672 324.027ZM321.185 324.027L321.656 323.861L321.539 323.527H321.185V324.027ZM332.82 357V357.5H333.526L333.291 356.834L332.82 357ZM321.275 343.344V343.844H321.954L321.752 343.195L321.275 343.344ZM318.894 335.707L318.414 335.848L318.416 335.856L318.894 335.707ZM318.287 333.753L317.808 333.895L317.811 333.906L318.287 333.753ZM317.546 331.305L317.065 331.442L317.068 331.452L317.546 331.305ZM316.962 329.126L317.448 329.007H316.476L316.962 329.126ZM316.333 331.417L315.854 331.275L315.852 331.281L316.333 331.417ZM315.075 335.707L315.553 335.855L315.554 335.853L315.075 335.707ZM312.717 343.344L312.239 343.196L312.039 343.844H312.717V343.344ZM325.318 357L325.796 356.854L323.415 349.038L322.937 349.184L322.458 349.329L324.839 357.146L325.318 357ZM322.937 349.184V348.684H310.965V349.184V349.684H322.937V349.184ZM310.965 349.184L310.487 349.038L308.106 356.854L308.584 357L309.062 357.146L311.443 349.329L310.965 349.184ZM308.584 357V356.5H301.082V357V357.5H308.584V357ZM301.082 357L301.554 357.166L313.144 324.193L312.672 324.027L312.2 323.862L300.611 356.834L301.082 357ZM312.672 324.027V324.527H321.185V324.027V323.527H312.672V324.027ZM321.185 324.027L320.713 324.194L332.348 357.166L332.82 357L333.291 356.834L321.656 323.861L321.185 324.027ZM332.82 357V356.5H325.318V357V357.5H332.82V357ZM321.275 343.344L321.752 343.195L319.371 335.558L318.894 335.707L318.416 335.856L320.797 343.493L321.275 343.344ZM318.894 335.707L319.373 335.566C319.222 335.051 319.019 334.396 318.763 333.6L318.287 333.753L317.811 333.906C318.065 334.697 318.266 335.344 318.414 335.848L318.894 335.707ZM318.287 333.753L318.767 333.611C318.527 332.8 318.279 331.982 318.024 331.157L317.546 331.305L317.068 331.452C317.322 332.274 317.569 333.088 317.808 333.895L318.287 333.753ZM317.546 331.305L318.027 331.167C317.788 330.333 317.596 329.613 317.448 329.007L316.962 329.126L316.476 329.244C316.628 329.867 316.825 330.599 317.065 331.442L317.546 331.305ZM316.962 329.126L316.476 329.007C316.329 329.611 316.122 330.366 315.854 331.275L316.333 331.417L316.813 331.559C317.084 330.641 317.296 329.869 317.448 329.244L316.962 329.126ZM316.333 331.417L315.852 331.281C315.598 332.177 315.352 333.029 315.113 333.835L315.592 333.978L316.071 334.12C316.312 333.309 316.559 332.453 316.814 331.553L316.333 331.417ZM315.592 333.978L315.113 333.835C314.873 334.644 314.701 335.219 314.597 335.561L315.075 335.707L315.554 335.853C315.659 335.506 315.832 334.928 316.071 334.12L315.592 333.978ZM315.075 335.707L314.598 335.559L312.239 343.196L312.717 343.344L313.195 343.491L315.553 335.855L315.075 335.707ZM312.717 343.344V343.844H321.275V343.344V342.844H312.717V343.344Z" fill="#F39000"/>
</svg>
