<svg width="120" height="120" viewBox="0 0 120 120" fill="none" xmlns="http://www.w3.org/2000/svg">
<path d="M0 0H120V120H0V0Z" fill="#F28E00"/>
<path d="M55.725 41.962L55.9339 42.2095L53.4637 49.2399L53.136 49.2951L46.3806 50.4263L46.0515 50.4808L41.092 44.1396L48.502 43.3126L50.9627 36.3079L55.725 41.962ZM43.2273 45.0387L46.5243 49.2546L51.9735 48.3422L48.6793 44.4304L43.2273 45.0387ZM49.5531 43.7176L52.8391 47.6191L54.657 42.4444L51.3709 38.5429L49.5531 43.7176Z" fill="white"/>
<path d="M49.4354 36.0175L49.5431 36.3233L44.7462 42.0121L44.4204 41.9467L37.7061 40.5909L37.3792 40.5243L34.9879 32.8259L42.2064 34.6998L46.9853 29.0317L49.4354 36.0175ZM36.6655 34.429L38.255 39.5471L43.6711 40.6408L41.9766 35.8079L36.6655 34.429ZM43.0455 35.4538L44.7361 40.2741L48.2665 36.0868L46.5759 31.2665L43.0455 35.4538Z" fill="white"/>
<path d="M65.8462 56.5023L65.8455 56.8267L59.4274 60.5699L59.1423 60.3985L53.2695 56.8591L52.9837 56.6862L53.3007 48.628L59.4756 52.8253L65.8699 49.0956L65.8462 56.5023ZM54.346 50.7034L54.135 56.0607L58.8723 58.9157L58.8892 53.7919L54.346 50.7034ZM60.0145 53.8184L59.9981 58.9291L64.7218 56.1738L64.7382 51.063L60.0145 53.8184Z" fill="white"/>
<path d="M59.9867 60.0481V72.8675H58.8608V60.0481H59.9867Z" fill="white"/>
<path d="M73.0577 46.5617L72.9835 46.8775L65.8852 49.0528L65.6465 48.8207L60.731 44.0299L60.492 43.7961L62.6284 36.0225L67.6888 41.523L74.7607 39.3553L73.0577 46.5617ZM63.1754 38.2826L61.7548 43.4507L65.7199 47.3151L66.8985 42.3299L63.1754 38.2826ZM67.9882 42.6133L66.813 47.5859L72.0374 45.9844L73.2126 41.0119L67.9882 42.6133Z" fill="white"/>
<path d="M79.2184 41.9835L78.9522 42.1671L72.2414 38.9839L72.22 38.6508L71.7864 31.7843L71.7659 31.4498L78.5491 27.1375L78.615 34.6273L85.3012 37.7984L79.2184 41.9835ZM77.4417 29.1801L72.932 32.0469L73.2817 37.5857L77.49 34.691L77.4417 29.1801ZM78.1071 35.6367L73.9099 38.5244L78.8493 40.8671L83.0466 37.9793L78.1071 35.6367Z" fill="white"/>
<path d="M73.9157 28.8173L73.8125 29.1247L66.5437 30.6275L66.3275 30.3741L61.8767 25.1448L61.6604 24.8897L64.5071 17.3494L69.0364 23.2989L76.2784 21.8012L73.9157 28.8173ZM64.8425 19.6508L62.9497 24.6638L66.5399 28.8819L68.1749 24.0284L64.8425 19.6508ZM69.2336 24.4124L67.6032 29.2536L72.9533 28.1472L74.5836 23.306L69.2336 24.4124Z" fill="white"/>
<path d="M63.0153 33.4713L63.0338 33.7952L56.8478 37.914L56.5531 37.7599L50.4817 34.5765L50.1863 34.4209L50.0272 26.358L56.4389 30.1802L62.6018 26.0762L63.0153 33.4713ZM51.1931 28.3676L51.2986 33.728L56.1961 36.2959L55.9106 31.18L51.1931 28.3676ZM57.0354 31.1394L57.3207 36.2422L61.8735 33.2103L61.5882 28.1076L57.0354 31.1394Z" fill="white"/>
<path d="M43.0252 78.4083V84.5523C43.0252 85.2148 42.8845 85.808 42.6031 86.3319C42.326 86.8558 41.906 87.2715 41.3431 87.5789C40.7802 87.882 40.0723 88.0335 39.2193 88.0335C38.0026 88.0335 37.0761 87.7153 36.4396 87.0788C35.8074 86.438 35.4914 85.5872 35.4914 84.5264V78.4083H37.0501V84.39C37.0501 85.1823 37.2363 85.7668 37.6086 86.1435C37.981 86.5202 38.5374 86.7086 39.2778 86.7086C39.7887 86.7086 40.2044 86.6198 40.5248 86.4423C40.8495 86.2604 41.0876 85.9963 41.2392 85.6499C41.3951 85.2992 41.473 84.8771 41.473 84.3835V78.4083H43.0252Z" fill="white"/>
<path d="M48.587 78.4083C49.8123 78.4083 50.7064 78.6594 51.2693 79.1617C51.8322 79.664 52.1136 80.3676 52.1136 81.2725C52.1136 81.6838 52.0486 82.0757 51.9188 82.448C51.7932 82.8161 51.5854 83.143 51.2953 83.4287C51.0052 83.7102 50.622 83.9332 50.1457 84.0977C49.6737 84.2622 49.0914 84.3445 48.3986 84.3445H47.3854V87.9036H45.8267V78.4083H48.587ZM48.483 79.7008H47.3854V83.0456H48.2362C48.7255 83.0456 49.1412 82.9893 49.4832 82.8767C49.8253 82.7598 50.0851 82.5758 50.2626 82.3246C50.4401 82.0735 50.5289 81.7423 50.5289 81.3309C50.5289 80.7811 50.3622 80.3719 50.0288 80.1034C49.6997 79.835 49.1845 79.7008 48.483 79.7008Z" fill="white"/>
<path d="M57.1427 78.4083C58.3681 78.4083 59.2622 78.6594 59.8251 79.1617C60.3879 79.664 60.6694 80.3676 60.6694 81.2725C60.6694 81.6838 60.6044 82.0757 60.4745 82.448C60.349 82.8161 60.1411 83.143 59.8511 83.4287C59.561 83.7102 59.1778 83.9332 58.7015 84.0977C58.2295 84.2622 57.6472 84.3445 56.9544 84.3445H55.9412V87.9036H54.3825V78.4083H57.1427ZM57.0388 79.7008H55.9412V83.0456H56.792C57.2813 83.0456 57.697 82.9893 58.039 82.8767C58.3811 82.7598 58.6409 82.5758 58.8184 82.3246C58.9959 82.0735 59.0847 81.7423 59.0847 81.3309C59.0847 80.7811 58.918 80.3719 58.5846 80.1034C58.2555 79.835 57.7403 79.7008 57.0388 79.7008Z" fill="white"/>
<path d="M62.9383 87.9036V78.4083H64.497V86.5787H68.5302V87.9036H62.9383Z" fill="white"/>
<path d="M75.9235 87.9036H70.5458V78.4083H75.9235V79.7203H72.1046V82.2987H75.6832V83.6041H72.1046V86.5852H75.9235V87.9036Z" fill="white"/>
<path d="M85.3885 78.4083L82.0697 87.9036H80.4201L77.1013 78.4083H78.699L80.6993 84.3575C80.76 84.5307 80.8249 84.7407 80.8942 84.9875C80.9678 85.2343 81.0349 85.4832 81.0955 85.7344C81.1605 85.9855 81.2103 86.2085 81.2449 86.4033C81.2795 86.2085 81.3272 85.9855 81.3878 85.7344C81.4527 85.4832 81.5198 85.2343 81.5891 84.9875C81.6584 84.7407 81.7233 84.5285 81.784 84.351L83.7908 78.4083H85.3885Z" fill="white"/>
<path d="M32.6834 93.7336L29.3646 103.229H27.7149L24.3961 93.7336H25.9938L27.9942 99.6828C28.0548 99.856 28.1198 100.066 28.189 100.313C28.2627 100.56 28.3298 100.809 28.3904 101.06C28.4553 101.311 28.5051 101.534 28.5398 101.729C28.5744 101.534 28.622 101.311 28.6826 101.06C28.7476 100.809 28.8147 100.56 28.884 100.313C28.9533 100.066 29.0182 99.8538 29.0788 99.6763L31.0857 93.7336H32.6834Z" fill="white"/>
<path d="M40.187 103.229L39.2583 100.592H35.6277L34.699 103.229H33.0558L36.589 93.6946H38.3166L41.8432 103.229H40.187ZM38.8556 99.2541L37.9529 96.6562C37.9182 96.5437 37.8684 96.3856 37.8035 96.1821C37.7385 95.9743 37.6736 95.7643 37.6086 95.5521C37.5437 95.3357 37.4896 95.1538 37.4463 95.0066C37.403 95.1841 37.3488 95.3833 37.2839 95.6041C37.2233 95.8206 37.1627 96.0241 37.102 96.2146C37.0458 96.4051 37.0025 96.5523 36.9722 96.6562L36.0629 99.2541H38.8556Z" fill="white"/>
<path d="M51.1784 98.3903C51.1784 99.4598 50.9792 100.354 50.5808 101.073C50.1825 101.787 49.6045 102.326 48.8467 102.69C48.089 103.049 47.1754 103.229 46.106 103.229H43.4691V93.7336H46.3917C47.3746 93.7336 48.2233 93.9111 48.9377 94.2662C49.6521 94.6169 50.2041 95.1386 50.5938 95.8314C50.9835 96.5199 51.1784 97.3728 51.1784 98.3903ZM49.5547 98.4358C49.5547 97.6564 49.4313 97.0156 49.1845 96.5134C48.942 96.0111 48.5826 95.6387 48.1063 95.3963C47.6344 95.1495 47.052 95.0261 46.3593 95.0261H45.0278V101.923H46.132C47.2794 101.923 48.1367 101.631 48.7039 101.047C49.2711 100.462 49.5547 99.5919 49.5547 98.4358Z" fill="white"/>
<path d="M59.0782 100.644C59.0782 101.207 58.9396 101.692 58.6625 102.099C58.3897 102.506 57.9957 102.818 57.4805 103.034C56.9696 103.251 56.3591 103.359 55.649 103.359C55.3026 103.359 54.9713 103.339 54.6553 103.3C54.3392 103.261 54.0404 103.205 53.759 103.131C53.4819 103.054 53.2286 102.96 52.9991 102.852V101.384C53.3845 101.553 53.8153 101.707 54.2916 101.846C54.7678 101.98 55.2528 102.047 55.7464 102.047C56.1491 102.047 56.4825 101.995 56.7466 101.891C57.015 101.783 57.2142 101.631 57.3441 101.436C57.474 101.237 57.5389 101.006 57.5389 100.741C57.5389 100.46 57.4632 100.222 57.3116 100.027C57.1601 99.8322 56.9306 99.6546 56.6232 99.4944C56.3201 99.3299 55.9391 99.1545 55.4801 98.9684C55.1684 98.8428 54.8696 98.6999 54.5838 98.5397C54.3024 98.3795 54.0513 98.1912 53.8304 97.9747C53.6096 97.7582 53.4343 97.5027 53.3044 97.2083C53.1788 96.9095 53.116 96.5588 53.116 96.1562C53.116 95.6193 53.2437 95.1603 53.4992 94.7793C53.759 94.3982 54.1227 94.106 54.5903 93.9025C55.0623 93.699 55.6122 93.5972 56.24 93.5972C56.7379 93.5972 57.2055 93.6492 57.6428 93.7531C58.0845 93.857 58.5175 94.0042 58.9418 94.1947L58.4482 95.4482C58.0585 95.288 57.6796 95.1603 57.3116 95.065C56.9479 94.9698 56.5755 94.9222 56.1945 94.9222C55.8655 94.9222 55.5862 94.9719 55.3567 95.0715C55.1272 95.1711 54.9519 95.3118 54.8306 95.4937C54.7137 95.6712 54.6553 95.8834 54.6553 96.1302C54.6553 96.4073 54.7224 96.6411 54.8566 96.8316C54.9952 97.0178 55.2073 97.1888 55.4931 97.3447C55.7832 97.5006 56.1556 97.6738 56.6102 97.8643C57.1341 98.0808 57.5779 98.3081 57.9416 98.5462C58.3096 98.7844 58.5911 99.0701 58.7859 99.4035C58.9808 99.7326 59.0782 100.146 59.0782 100.644Z" fill="white"/>
<path d="M64.575 103.229H63.0097V95.0585H60.23V93.7336H67.3482V95.0585H64.575V103.229Z" fill="white"/>
<path d="M74.5531 103.229H69.1755V93.7336H74.5531V95.0456H70.7342V97.624H74.3128V98.9294H70.7342V101.91H74.5531V103.229Z" fill="white"/>
<path d="M84.9014 103.229H82.9855L78.3353 95.6496H78.2768C78.2941 95.905 78.3093 96.1756 78.3223 96.4614C78.3396 96.7472 78.3526 97.0416 78.3612 97.3447C78.3742 97.6478 78.3851 97.9552 78.3937 98.2669V103.229H76.9779V93.7336H78.8808L83.5246 101.261H83.57C83.5614 101.04 83.5505 100.787 83.5375 100.501C83.5246 100.215 83.5116 99.9209 83.4986 99.6178C83.4899 99.3104 83.4834 99.0138 83.4791 98.7281V93.7336H84.9014V103.229Z" fill="white"/>
<path d="M93.6521 103.229L92.7233 100.592H89.0928L88.164 103.229H86.5209L90.054 93.6946H91.7816L95.3082 103.229H93.6521ZM92.3206 99.2541L91.4179 96.6562C91.3832 96.5437 91.3334 96.3856 91.2685 96.1821C91.2036 95.9743 91.1386 95.7643 91.0737 95.5521C91.0087 95.3357 90.9546 95.1538 90.9113 95.0066C90.868 95.1841 90.8139 95.3833 90.7489 95.6041C90.6883 95.8206 90.6277 96.0241 90.5671 96.2146C90.5108 96.4051 90.4675 96.5523 90.4372 96.6562L89.5279 99.2541H92.3206Z" fill="white"/>
</svg>
