<svg width="21" height="21" viewBox="0 0 21 21" fill="none" xmlns="http://www.w3.org/2000/svg">
<path d="M19.0366 10.5C19.0366 5.78537 15.2146 1.96341 10.5 1.96341C5.78537 1.96341 1.96341 5.78537 1.96341 10.5C1.96341 15.2146 5.78537 19.0366 10.5 19.0366C15.2146 19.0366 19.0366 15.2146 19.0366 10.5ZM20.5 10.5C20.5 16.0228 16.0228 20.5 10.5 20.5C4.97715 20.5 0.5 16.0228 0.5 10.5C0.5 4.97715 4.97715 0.5 10.5 0.5C16.0228 0.5 20.5 4.97715 20.5 10.5Z" fill="#372C1D" stroke="#372C1D" stroke-linecap="round" stroke-linejoin="round"/>
<path d="M9.76831 9.22661V5.35085C9.76831 4.94674 10.0959 4.61914 10.5 4.61914C10.9041 4.61914 11.2317 4.94674 11.2317 5.35085V9.22661C11.2317 9.47314 11.3003 9.71525 11.4299 9.92497C11.5596 10.1348 11.7456 10.3044 11.9663 10.4147L14.9465 11.9048C15.3079 12.0855 15.454 12.5256 15.2733 12.8871C15.0924 13.2482 14.6532 13.3945 14.2919 13.2138L11.3118 11.7238C10.8481 11.492 10.4582 11.1357 10.1856 10.6948C9.91297 10.2538 9.76833 9.74509 9.76831 9.22661Z" fill="#372C1D" stroke="#372C1D" stroke-linecap="round" stroke-linejoin="round"/>
</svg>
